<?xml version="1.0" standalone="no"?>
<svg xmlns:xlink="http://www.w3.org/1999/xlink" id="wave" style="transform:rotate(180deg); transition: 0.3s" viewBox="0 0 1440 100" version="1.1" xmlns="http://www.w3.org/2000/svg"><defs><linearGradient id="sw-gradient-0" x1="0" x2="0" y1="1" y2="0"><stop stop-color="rgba(255, 236, 204, 1)" offset="0%"/><stop stop-color="rgba(255, 236, 204, 1)" offset="100%"/></linearGradient></defs><path style="transform:translate(0, 0px); opacity:1" fill="url(#sw-gradient-0)" d="M0,40L30,45C60,50,120,60,180,65C240,70,300,70,360,66.7C420,63,480,57,540,56.7C600,57,660,63,720,60C780,57,840,43,900,45C960,47,1020,63,1080,70C1140,77,1200,73,1260,71.7C1320,70,1380,70,1440,73.3C1500,77,1560,83,1620,83.3C1680,83,1740,77,1800,71.7C1860,67,1920,63,1980,56.7C2040,50,2100,40,2160,40C2220,40,2280,50,2340,55C2400,60,2460,60,2520,51.7C2580,43,2640,27,2700,23.3C2760,20,2820,30,2880,40C2940,50,3000,60,3060,61.7C3120,63,3180,57,3240,48.3C3300,40,3360,30,3420,25C3480,20,3540,20,3600,21.7C3660,23,3720,27,3780,30C3840,33,3900,37,3960,43.3C4020,50,4080,60,4140,68.3C4200,77,4260,83,4290,86.7L4320,90L4320,100L4290,100C4260,100,4200,100,4140,100C4080,100,4020,100,3960,100C3900,100,3840,100,3780,100C3720,100,3660,100,3600,100C3540,100,3480,100,3420,100C3360,100,3300,100,3240,100C3180,100,3120,100,3060,100C3000,100,2940,100,2880,100C2820,100,2760,100,2700,100C2640,100,2580,100,2520,100C2460,100,2400,100,2340,100C2280,100,2220,100,2160,100C2100,100,2040,100,1980,100C1920,100,1860,100,1800,100C1740,100,1680,100,1620,100C1560,100,1500,100,1440,100C1380,100,1320,100,1260,100C1200,100,1140,100,1080,100C1020,100,960,100,900,100C840,100,780,100,720,100C660,100,600,100,540,100C480,100,420,100,360,100C300,100,240,100,180,100C120,100,60,100,30,100L0,100Z"/></svg>